<svg width="124" height="86" fill="none" xmlns="http://www.w3.org/2000/svg">
<path d="M43.3573 42.9959C44.7232 42.9931 46.045 43.479 47.0839 44.3657C48.1228 45.2525 48.8104 46.4815 49.0222 47.8309C50.1788 55.2486 53.9486 62.0087 59.6513 66.8912C65.3541 71.7738 72.6143 74.4571 80.1216 74.4571C87.629 74.4571 94.8891 71.7738 100.592 66.8912C106.295 62.0087 110.064 55.2486 111.221 47.8309C111.433 46.4787 112.123 45.2474 113.166 44.3603C114.208 43.4733 115.534 42.9892 116.902 42.9959C117.725 42.9928 118.538 43.167 119.287 43.5066C120.036 43.8463 120.703 44.3433 121.243 44.964C121.783 45.5847 122.182 46.3144 122.414 47.1034C122.646 47.8924 122.706 48.7221 122.588 49.5361C121.039 59.6849 115.906 68.9431 108.119 75.6325C100.331 82.322 90.4044 86 80.1381 86C69.8719 86 59.9454 82.322 52.1577 75.6325C44.3701 68.9431 39.2368 59.6849 37.6882 49.5361C37.5709 48.7235 37.6299 47.8952 37.861 47.1074C38.0922 46.3196 38.4902 45.5907 39.0279 44.9703C39.5657 44.3499 40.2307 43.8525 40.9777 43.5118C41.7247 43.1711 42.5363 42.9951 43.3573 42.9959Z" fill="#BD31AD"/>
<path d="M121.424 31.5215C121.424 28.3518 118.854 25.7823 115.684 25.7823C112.515 25.7823 109.945 28.3518 109.945 31.5215C109.945 34.6912 112.515 37.2608 115.684 37.2608C118.854 37.2608 121.424 34.6912 121.424 31.5215Z" fill="#BD31AD"/>
<path d="M111.805 16.2228C110.833 14.0536 108.286 13.0835 106.116 14.0561C103.947 15.0287 102.977 17.5757 103.95 19.7449C104.922 21.9141 107.469 22.8842 109.639 21.9115C111.808 20.9389 112.778 18.392 111.805 16.2228Z" fill="#BD31AD"/>
<path d="M99.1767 7.82866C97.8406 6.97619 96.0665 7.36821 95.214 8.70427C94.3615 10.0403 94.7536 11.8145 96.0896 12.667C97.4257 13.5194 99.1998 13.1274 100.052 11.7914C100.905 10.4553 100.513 8.68114 99.1767 7.82866Z" fill="#BD31AD"/>
<path d="M79.6922 42.9959C78.3276 42.9978 77.0073 42.512 75.9693 41.6262C74.9314 40.7404 74.244 39.5129 74.0314 38.165C72.8749 30.7472 69.1051 23.9872 63.4023 19.1046C57.6995 14.2221 50.4394 11.5387 42.932 11.5387C35.4246 11.5387 28.1645 14.2221 22.4617 19.1046C16.759 23.9872 12.9892 30.7472 11.8326 38.165C11.6199 39.5136 10.932 40.7417 9.89313 41.6276C8.85429 42.5135 7.53297 42.9988 6.16769 42.9959C5.34586 42.9995 4.53291 42.8259 3.78421 42.487C3.03551 42.1481 2.36866 41.6518 1.82909 41.0318C1.28951 40.4119 0.889894 39.683 0.657449 38.8947C0.425005 38.1065 0.365198 37.2773 0.482103 36.4639C2.0307 26.3151 7.16401 17.0569 14.9516 10.3675C22.7392 3.67805 32.6658 0 42.932 0C53.1983 0 63.1248 3.67805 70.9124 10.3675C78.7 17.0569 83.8333 26.3151 85.3819 36.4639C85.4989 37.2777 85.439 38.1072 85.2063 38.8957C84.9736 39.6843 84.5736 40.4134 84.0336 41.0334C83.4936 41.6534 82.8262 42.1496 82.077 42.4883C81.3278 42.827 80.5144 43.0001 79.6922 42.9959Z" fill="#BD31AD"/>
<path d="M1.64234 54.4827C1.64234 57.6524 4.2119 60.2219 7.38161 60.2219C10.5513 60.2219 13.1209 57.6524 13.1209 54.4827C13.1209 51.313 10.5513 48.7434 7.38161 48.7434C4.2119 48.7434 1.64234 51.313 1.64234 54.4827Z" fill="#BD31AD"/>
<path d="M11.2629 69.7794C12.2355 71.9486 14.7824 72.9187 16.9516 71.946C19.1209 70.9734 20.0909 68.4265 19.1183 66.2573C18.1457 64.0881 15.5987 63.118 13.4295 64.0906C11.2603 65.0632 10.2903 67.6102 11.2629 69.7794Z" fill="#BD31AD"/>
<path d="M23.8963 78.1703C25.2323 79.0228 27.0065 78.6307 27.859 77.2947C28.7114 75.9586 28.3194 74.1845 26.9834 73.332C25.6473 72.4795 23.8731 72.8715 23.0207 74.2076C22.1682 75.5436 22.5602 77.3178 23.8963 78.1703Z" fill="#BD31AD"/>
</svg>
