<svg width="611" height="86" viewBox="0 0 611 86" fill="none" xmlns="http://www.w3.org/2000/svg">
<path d="M180.051 73.9178C180.069 74.6707 179.929 75.419 179.64 76.1146C179.352 76.8101 178.92 77.4374 178.374 77.956C177.834 78.4845 177.194 78.8996 176.492 79.1769C175.789 79.4541 175.038 79.5879 174.282 79.5704C173.531 79.5903 172.783 79.4574 172.084 79.18C171.384 78.9025 170.749 78.4861 170.215 77.956C169.676 77.4338 169.25 76.8053 168.966 76.1102C168.682 75.4151 168.545 74.6686 168.564 73.9178V11.3888C168.544 10.6386 168.681 9.89252 168.965 9.19802C169.25 8.50353 169.675 7.87581 170.215 7.35476C170.749 6.82411 171.384 6.40708 172.083 6.12889C172.782 5.8507 173.53 5.71711 174.282 5.73621C175.038 5.71943 175.789 5.85399 176.492 6.13196C177.195 6.40993 177.835 6.82569 178.374 7.35476C178.921 7.87207 179.353 8.49854 179.641 9.19351C179.93 9.88848 180.07 10.6364 180.051 11.3888V73.9178Z" fill="#111D4A"/>
<path d="M242.055 51.8857V74.0334C242.075 74.7843 241.939 75.5311 241.654 76.2263C241.37 76.9215 240.944 77.5499 240.404 78.0716C239.295 79.1078 237.834 79.6842 236.316 79.6842C234.798 79.6842 233.337 79.1078 232.228 78.0716C231.689 77.5504 231.263 76.9226 230.979 76.2282C230.694 75.5337 230.557 74.7877 230.577 74.0376V51.9187C230.565 49.8055 230.265 47.7037 229.685 45.6716C229.19 43.9375 228.368 42.3144 227.261 40.8902C226.221 39.5793 224.893 38.5253 223.38 37.81C221.765 37.0578 220 36.6822 218.219 36.7117C216.369 36.6961 214.538 37.0806 212.851 37.8389C211.222 38.5683 209.767 39.6383 208.586 40.9769C207.363 42.3715 206.413 43.9837 205.787 45.7294C205.101 47.6217 204.758 49.6212 204.775 51.6338V73.8683C204.788 74.6214 204.649 75.3693 204.366 76.0675C204.084 76.7656 203.664 77.3997 203.131 77.9319C202.598 78.4641 201.963 78.8835 201.264 79.165C200.566 79.4465 199.818 79.5844 199.065 79.5704C198.304 79.5719 197.551 79.4247 196.847 79.1368C196.155 78.8658 195.526 78.4538 195.002 77.9271C194.48 77.403 194.06 76.7871 193.763 76.1103C193.452 75.401 193.295 74.6343 193.301 73.86V30.9435C193.295 30.1693 193.453 29.4027 193.763 28.6933C194.066 28.0113 194.498 27.3943 195.035 26.8765C195.573 26.3593 196.198 25.9401 196.88 25.6378C197.588 25.3273 198.354 25.1697 199.127 25.1754C199.906 25.1708 200.678 25.3342 201.389 25.6543C202.061 25.9457 202.668 26.3667 203.177 26.893C204.231 27.9878 204.814 29.4526 204.8 30.9725V31.7982C206.809 29.8348 209.131 28.219 211.67 27.0169C214.12 25.8478 216.801 25.2425 219.515 25.2456C222.69 25.2067 225.832 25.8975 228.698 27.2646C231.44 28.5872 233.863 30.4856 235.804 32.8305C237.84 35.3315 239.397 38.1871 240.396 41.2536C241.524 44.6836 242.085 48.2749 242.055 51.8857Z" fill="#111D4A"/>
<path d="M268.34 25.3488H273.295C274.057 25.3258 274.815 25.4569 275.525 25.7343C276.234 26.0118 276.88 26.4298 277.424 26.9632C277.964 27.4854 278.389 28.1139 278.674 28.809C278.958 29.5041 279.095 30.2506 279.076 31.0014C279.096 31.7694 278.959 32.5336 278.676 33.2475C278.392 33.9615 277.966 34.6104 277.424 35.1551C276.887 35.7007 276.243 36.129 275.533 36.4133C274.822 36.6976 274.06 36.8315 273.295 36.8067H268.34V73.8972C268.359 74.6479 268.222 75.3942 267.937 76.0892C267.653 76.7842 267.228 77.4128 266.689 77.9353C266.155 78.4647 265.519 78.8806 264.82 79.158C264.121 79.4354 263.373 79.5687 262.622 79.5498C261.866 79.5674 261.114 79.4337 260.411 79.1564C259.707 78.8792 259.066 78.464 258.526 77.9353C257.983 77.4154 257.556 76.7873 257.271 76.0917C256.987 75.396 256.851 74.6484 256.874 73.8972V36.8274H252.696C251.927 36.8387 251.165 36.6896 250.458 36.3897C249.776 36.087 249.159 35.6551 248.641 35.118C248.123 34.5806 247.703 33.9558 247.402 33.2723C246.952 32.2233 246.827 31.0635 247.043 29.9426C247.258 28.8217 247.805 27.7911 248.612 26.9839C249.15 26.4538 249.788 26.0362 250.489 25.7555C251.191 25.4747 251.941 25.3365 252.696 25.3488H256.849V11.3888C256.827 10.6383 256.963 9.89145 257.247 9.19659C257.532 8.50172 257.959 7.87427 258.501 7.35479C259.041 6.82559 259.682 6.40979 260.386 6.13183C261.089 5.85387 261.841 5.71937 262.597 5.73623C263.349 5.71785 264.097 5.85177 264.796 6.12992C265.495 6.40807 266.13 6.82471 266.664 7.35479C267.203 7.87629 267.629 8.5041 267.913 9.19848C268.197 9.89286 268.334 10.6387 268.316 11.3888L268.34 25.3488Z" fill="#111D4A"/>
<path d="M295.955 57.9388C296.86 61.148 298.776 63.98 301.418 66.015C302.734 67.0208 304.204 67.8097 305.769 68.352C307.394 68.9105 309.101 69.1897 310.819 69.1778C313.28 69.1778 315.345 68.8021 317.013 68.0506C318.579 67.3561 319.985 66.3454 321.142 65.0819C321.988 64.3812 323.003 63.913 324.086 63.7235C325.017 63.5885 325.966 63.6777 326.856 63.9836C327.46 64.1735 328.013 64.4998 328.471 64.9374C328.922 65.3708 329.309 65.8656 329.622 66.4073C330.354 67.5245 330.69 68.8547 330.576 70.1853C330.477 71.5891 329.756 72.8485 328.413 73.9633C327.481 74.8445 326.477 75.6457 325.411 76.3581C324.206 77.1541 322.92 77.8211 321.575 78.3483C320.019 78.958 318.406 79.4117 316.761 79.7026C314.799 80.0457 312.811 80.2102 310.819 80.1939C307.133 80.2194 303.48 79.493 300.084 78.0592C293.473 75.2895 288.198 70.0565 285.377 63.4675C283.928 60.0737 283.182 56.422 283.182 52.7321C283.182 49.0423 283.928 45.3906 285.377 41.9968C288.207 35.4057 293.477 30.165 300.084 27.372C303.466 25.9489 307.097 25.2133 310.767 25.2084C314.436 25.2034 318.07 25.9291 321.455 27.3431C328.03 30.1112 333.295 35.2931 336.167 41.8234C337.653 45.1648 338.429 48.7781 338.446 52.4349C338.472 53.1681 338.344 53.8986 338.071 54.5792C337.797 55.2599 337.383 55.8755 336.856 56.3863C336.314 56.8985 335.675 57.2974 334.977 57.5597C334.278 57.822 333.535 57.9425 332.789 57.914L295.955 57.9388ZM326.641 48.3637C326.229 46.636 325.532 44.9893 324.577 43.4915C323.647 42.0265 322.476 40.7295 321.113 39.6557C318.224 37.3973 314.659 36.1784 310.993 36.1956C309.138 36.1839 307.295 36.4955 305.546 37.1164C302.228 38.2877 299.409 40.5573 297.557 43.5493C296.636 45.0307 295.977 46.6591 295.608 48.3637H326.641Z" fill="#111D4A"/>
<path d="M361.094 31.0592C363.504 29.2187 366.189 27.7695 369.05 26.765C372.018 25.7336 375.141 25.2182 378.282 25.2415H378.514C380.396 25.2415 381.857 25.7796 382.894 26.8559C383.413 27.4008 383.818 28.0437 384.085 28.747C384.353 29.4503 384.477 30.1999 384.451 30.9518C384.474 31.7187 384.331 32.4815 384.032 33.1883C383.734 33.8951 383.287 34.5293 382.721 35.0478C381.585 36.1183 380.074 36.6983 378.514 36.6622H378.282C375.989 36.6477 373.717 37.1074 371.61 38.0123C369.56 38.8834 367.698 40.1456 366.131 41.7284C364.562 43.3244 363.309 45.2031 362.44 47.2654C361.529 49.4174 361.068 51.7331 361.085 54.0699V73.8559C361.098 74.6092 360.958 75.3573 360.676 76.0556C360.393 76.754 359.973 77.3884 359.44 77.9211C358.907 78.4538 358.273 78.874 357.575 79.1566C356.876 79.4392 356.128 79.5786 355.375 79.5663C354.613 79.5682 353.859 79.4209 353.154 79.1327C352.461 78.8617 351.833 78.4497 351.308 77.9229C350.786 77.3989 350.367 76.783 350.069 76.1062C349.76 75.3966 349.604 74.6299 349.611 73.8559V30.9436C349.604 30.1696 349.76 29.403 350.069 28.6933C350.368 28.0171 350.787 27.4013 351.308 26.8765C351.839 26.3504 352.465 25.93 353.154 25.6378C353.872 25.3293 354.647 25.1719 355.429 25.1754C356.207 25.1734 356.977 25.3367 357.687 25.6544C358.357 25.9482 358.964 26.3688 359.475 26.893C359.979 27.42 360.381 28.036 360.66 28.7098C360.946 29.4249 361.087 30.19 361.073 30.9601L361.094 31.0592Z" fill="#111D4A"/>
<path d="M384.451 52.7486C384.425 49.0714 385.162 45.4287 386.615 42.0505C389.432 35.4523 394.694 30.2008 401.297 27.3968C404.664 25.9738 408.281 25.2381 411.937 25.2332C415.592 25.2282 419.211 25.954 422.582 27.3679C425.82 28.7478 428.763 30.7353 431.253 33.2228C433.746 35.7202 435.751 38.6608 437.166 41.8936C438.636 45.2388 439.402 48.8509 439.416 52.505V73.6743C439.422 74.4579 439.264 75.2341 438.953 75.9534C438.658 76.6486 438.238 77.2839 437.715 77.828C437.184 78.3756 436.546 78.8072 435.84 79.0956C435.11 79.4045 434.325 79.5618 433.532 79.558C432.823 79.5795 432.117 79.4557 431.457 79.1945C430.798 78.9332 430.198 78.5398 429.696 78.0386C428.686 77.0491 428.062 75.7312 427.937 74.3225C425.699 76.1427 423.192 77.6051 420.505 78.6579C417.783 79.7138 414.886 80.2488 411.966 80.2352C408.301 80.2617 404.669 79.5322 401.297 78.0922C394.695 75.2881 389.434 70.0386 386.615 63.4427C385.164 60.0654 384.427 56.4244 384.451 52.7486ZM395.93 52.7776C395.921 54.9153 396.356 57.0315 397.21 58.9916C398.849 62.8238 401.903 65.8763 405.736 67.5138C407.69 68.3619 409.799 68.7949 411.929 68.7856C414.086 68.801 416.221 68.3679 418.201 67.5138C420.098 66.699 421.822 65.5319 423.284 64.0744C424.738 62.6159 425.896 60.8899 426.695 58.9916C427.515 57.0183 427.937 54.9023 427.937 52.7652C427.937 50.6281 427.515 48.512 426.695 46.5387C425.468 43.6426 423.411 41.1746 420.783 39.4463C418.155 37.718 415.074 36.8067 411.929 36.8274C409.802 36.817 407.695 37.2384 405.736 38.066C403.836 38.8644 402.109 40.0225 400.649 41.4766C399.195 42.9333 398.028 44.6505 397.21 46.5387C396.351 48.5057 395.915 50.6312 395.93 52.7776Z" fill="#111D4A"/>
<path d="M458.624 52.633L458.566 52.7487L458.624 52.8065C458.626 54.7739 459.007 56.7226 459.747 58.5457C460.486 60.393 461.552 62.0923 462.893 63.5624C464.239 65.0447 465.853 66.2592 467.65 67.1422C469.509 68.0546 471.549 68.5372 473.62 68.5543C475.53 68.6391 477.44 68.4047 479.273 67.8607C481.229 67.2454 483.036 66.2302 484.578 64.8796C485.157 64.4171 485.78 63.9671 486.453 63.5211C487.105 63.0917 487.828 62.78 488.588 62.6004C489.387 62.4265 490.216 62.4364 491.011 62.6293C492.016 62.899 492.939 63.414 493.695 64.1281C494.295 64.6488 494.769 65.2999 495.078 66.0315C495.373 66.7442 495.514 67.511 495.491 68.2818C495.462 69.0892 495.276 69.8831 494.942 70.6188C494.565 71.4492 494.037 72.2024 493.386 72.8402C491.018 75.2749 488.142 77.1559 484.963 78.3483C481.666 79.6019 478.167 80.2374 474.64 80.2228C467.319 80.2541 460.277 77.4225 455.015 72.3323C452.477 69.8606 450.448 66.9147 449.045 63.6615C447.573 60.2883 446.826 56.6436 446.852 52.9634V52.9056L446.91 52.7899L446.852 52.7321C446.824 49.0238 447.571 45.3504 449.045 41.9473C451.895 35.3261 457.196 30.0646 463.839 27.2647C467.259 25.8117 470.941 25.0753 474.657 25.1011C478.183 25.0865 481.683 25.722 484.979 26.9756C488.166 28.1712 491.047 30.0596 493.415 32.5043C494.066 33.1407 494.594 33.8925 494.971 34.7216C495.307 35.4667 495.494 36.2705 495.52 37.0875C495.545 37.8678 495.404 38.6445 495.107 39.3667C494.798 40.0989 494.325 40.7502 493.724 41.2701C492.97 41.9873 492.047 42.5028 491.04 42.7689C490.244 42.9632 489.413 42.9632 488.617 42.7689C487.857 42.5739 487.135 42.2529 486.482 41.8193C485.808 41.3761 485.183 40.9233 484.607 40.4608C483.054 39.1355 481.249 38.1358 479.302 37.521C477.468 36.9801 475.561 36.7266 473.649 36.7696C471.596 36.8325 469.579 37.3352 467.736 38.2436C465.939 39.1238 464.325 40.3371 462.98 41.8193C461.636 43.2925 460.561 44.9906 459.805 46.836C459.033 48.6715 458.631 50.6417 458.624 52.633Z" fill="#111D4A"/>
<path d="M521.859 25.3488H526.814C527.575 25.3267 528.333 25.4583 529.043 25.7357C529.752 26.013 530.398 26.4305 530.943 26.9632C531.482 27.4858 531.907 28.1144 532.191 28.8094C532.475 29.5044 532.613 30.2507 532.594 31.0014C532.613 31.7693 532.477 32.5332 532.193 33.2471C531.909 33.9609 531.484 34.61 530.943 35.1551C530.405 35.7 529.761 36.128 529.051 36.4122C528.34 36.6964 527.579 36.8307 526.814 36.8067H521.859V73.8972C521.878 74.6479 521.741 75.3945 521.457 76.0896C521.173 76.7847 520.747 77.4132 520.207 77.9353C519.674 78.4654 519.038 78.8818 518.339 79.1593C517.64 79.4368 516.892 79.5696 516.14 79.5497C515.385 79.5673 514.634 79.4335 513.931 79.1562C513.228 78.879 512.588 78.4638 512.049 77.9353C511.501 77.4175 511.069 76.7904 510.781 76.0947C510.492 75.399 510.353 74.6502 510.372 73.8972V36.8273H506.243C505.469 36.8347 504.702 36.6785 503.993 36.369C503.31 36.0686 502.692 35.6364 502.176 35.0973C501.658 34.5598 501.238 33.935 500.937 33.2516C500.628 32.5422 500.472 31.7754 500.479 31.0014C500.456 30.2501 500.592 29.5025 500.876 28.8069C501.161 28.1113 501.588 27.4832 502.131 26.9632C502.672 26.4352 503.313 26.0204 504.016 25.7431C504.719 25.4659 505.471 25.3319 506.227 25.3488H510.356V11.3888C510.337 10.6364 510.476 9.88848 510.765 9.19351C511.054 8.49854 511.485 7.87207 512.032 7.35476C512.572 6.82569 513.212 6.40993 513.914 6.13196C514.617 5.85399 515.368 5.71943 516.124 5.73621C516.876 5.71711 517.624 5.8507 518.323 6.12889C519.022 6.40708 519.658 6.82411 520.191 7.35476C520.731 7.87581 521.157 8.50353 521.441 9.19802C521.725 9.89252 521.862 10.6386 521.842 11.3888L521.859 25.3488Z" fill="#111D4A"/>
<path d="M548.28 73.8601C548.293 74.6135 548.154 75.3618 547.872 76.0605C547.589 76.7591 547.169 77.3937 546.636 77.9266C546.104 78.4594 545.469 78.8795 544.77 79.162C544.072 79.4444 543.323 79.5833 542.57 79.5704C541.808 79.5723 541.054 79.425 540.349 79.1369C539.657 78.8648 539.028 78.4529 538.503 77.9271C537.981 77.4031 537.561 76.7871 537.264 76.1104C536.955 75.4008 536.799 74.634 536.806 73.8601V30.9436C536.799 30.1697 536.955 29.403 537.264 28.6933C537.567 28.0113 537.999 27.3944 538.536 26.8766C539.074 26.3594 539.699 25.9402 540.382 25.6379C541.093 25.3328 541.858 25.1754 542.632 25.1754C543.405 25.1754 544.171 25.3328 544.882 25.6379C545.551 25.9339 546.158 26.3543 546.67 26.8766C547.173 27.4036 547.573 28.0197 547.851 28.6933C548.144 29.407 548.292 30.1721 548.284 30.9436L548.28 73.8601Z" fill="#111D4A"/>
<path d="M557.876 42.0505C560.693 35.4538 565.953 30.2027 572.554 27.3968C575.936 25.9689 579.57 25.2332 583.24 25.2332C586.911 25.2332 590.544 25.9689 593.926 27.3968C597.181 28.7909 600.137 30.7983 602.634 33.3095C605.127 35.8275 607.123 38.7929 608.518 42.0505C609.946 45.4371 610.681 49.0753 610.681 52.7507C610.681 56.4261 609.946 60.0643 608.518 63.4509C607.123 66.7072 605.127 69.6713 602.634 72.1878C600.138 74.6972 597.181 76.702 593.926 78.0922C590.544 79.5201 586.911 80.2558 583.24 80.2558C579.57 80.2558 575.936 79.5201 572.554 78.0922C565.954 75.2862 560.695 70.037 557.876 63.4426C556.448 60.056 555.712 56.4178 555.712 52.7424C555.712 49.0671 556.448 45.4288 557.876 42.0422V42.0505ZM568.516 58.9503C570.15 62.7766 573.199 65.8239 577.026 67.456C578.995 68.2952 581.114 68.7278 583.255 68.7278C585.395 68.7278 587.514 68.2952 589.483 67.456C591.377 66.643 593.101 65.4788 594.562 64.0248C596.012 62.5679 597.167 60.8449 597.964 58.9503C598.782 56.9799 599.203 54.8675 599.203 52.7342C599.203 50.6008 598.782 48.4884 597.964 46.518C596.35 42.7016 593.306 39.669 589.483 38.0701C586.552 36.8354 583.32 36.4996 580.198 37.1054C577.076 37.7112 574.204 39.2312 571.947 41.4724C570.499 42.9256 569.335 44.6369 568.516 46.518C567.68 48.4837 567.249 50.5979 567.249 52.7342C567.249 54.8704 567.68 56.9847 568.516 58.9503Z" fill="#111D4A"/>
<path d="M537.264 9.20867C537.559 8.52826 537.979 7.90923 538.503 7.38366C539.568 6.32166 541.012 5.72534 542.516 5.72534C544.021 5.72534 545.464 6.32166 546.53 7.38366C547.052 7.91034 547.471 8.5291 547.768 9.20867C548.075 9.91465 548.233 10.6767 548.231 11.4466C548.235 12.2087 548.078 12.9632 547.768 13.6597C547.469 14.3306 547.049 14.9409 546.53 15.4599C545.464 16.5219 544.021 17.1182 542.516 17.1182C541.012 17.1182 539.568 16.5219 538.503 15.4599C537.982 14.942 537.562 14.3315 537.264 13.6597C536.953 12.9638 536.795 12.2089 536.802 11.4466C536.797 10.6764 536.955 9.91403 537.264 9.20867Z" fill="#111D4A"/>
<path d="M43.3573 42.9959C44.7232 42.9931 46.045 43.479 47.0839 44.3657C48.1228 45.2525 48.8104 46.4815 49.0222 47.8309C50.1788 55.2486 53.9486 62.0087 59.6513 66.8912C65.3541 71.7738 72.6143 74.4571 80.1216 74.4571C87.629 74.4571 94.8891 71.7738 100.592 66.8912C106.295 62.0087 110.064 55.2486 111.221 47.8309C111.433 46.4787 112.123 45.2474 113.166 44.3603C114.208 43.4733 115.534 42.9892 116.902 42.9959C117.725 42.9928 118.538 43.167 119.287 43.5066C120.036 43.8463 120.703 44.3433 121.243 44.964C121.783 45.5847 122.182 46.3144 122.414 47.1034C122.646 47.8924 122.706 48.7221 122.588 49.5361C121.039 59.6849 115.906 68.9431 108.119 75.6325C100.331 82.322 90.4044 86 80.1381 86C69.8719 86 59.9454 82.322 52.1577 75.6325C44.3701 68.9431 39.2368 59.6849 37.6882 49.5361C37.5709 48.7235 37.6299 47.8952 37.861 47.1074C38.0922 46.3196 38.4902 45.5907 39.0279 44.9703C39.5657 44.3499 40.2307 43.8525 40.9777 43.5118C41.7247 43.1711 42.5363 42.9951 43.3573 42.9959Z" fill="#BD31AD"/>
<path d="M121.424 31.5215C121.424 28.3518 118.854 25.7823 115.684 25.7823C112.515 25.7823 109.945 28.3518 109.945 31.5215C109.945 34.6912 112.515 37.2608 115.684 37.2608C118.854 37.2608 121.424 34.6912 121.424 31.5215Z" fill="#BD31AD"/>
<path d="M111.805 16.2228C110.833 14.0536 108.286 13.0835 106.116 14.0561C103.947 15.0287 102.977 17.5757 103.95 19.7449C104.922 21.9141 107.469 22.8842 109.639 21.9115C111.808 20.9389 112.778 18.392 111.805 16.2228Z" fill="#BD31AD"/>
<path d="M99.1767 7.82866C97.8406 6.97619 96.0665 7.36821 95.214 8.70427C94.3615 10.0403 94.7536 11.8145 96.0896 12.667C97.4257 13.5194 99.1998 13.1274 100.052 11.7914C100.905 10.4553 100.513 8.68114 99.1767 7.82866Z" fill="#BD31AD"/>
<path d="M79.6922 42.9959C78.3276 42.9978 77.0073 42.512 75.9693 41.6262C74.9314 40.7404 74.244 39.5129 74.0314 38.165C72.8749 30.7472 69.1051 23.9872 63.4023 19.1046C57.6995 14.2221 50.4394 11.5387 42.932 11.5387C35.4246 11.5387 28.1645 14.2221 22.4617 19.1046C16.759 23.9872 12.9892 30.7472 11.8326 38.165C11.6199 39.5136 10.932 40.7417 9.89313 41.6276C8.85429 42.5135 7.53297 42.9988 6.16769 42.9959C5.34586 42.9995 4.53291 42.8259 3.78421 42.487C3.03551 42.1481 2.36866 41.6518 1.82909 41.0318C1.28951 40.4119 0.889894 39.683 0.657449 38.8947C0.425005 38.1065 0.365198 37.2773 0.482103 36.4639C2.0307 26.3151 7.16401 17.0569 14.9516 10.3675C22.7392 3.67805 32.6658 0 42.932 0C53.1983 0 63.1248 3.67805 70.9124 10.3675C78.7 17.0569 83.8333 26.3151 85.3819 36.4639C85.4989 37.2777 85.439 38.1072 85.2063 38.8957C84.9736 39.6843 84.5736 40.4134 84.0336 41.0334C83.4936 41.6534 82.8262 42.1496 82.077 42.4883C81.3278 42.827 80.5144 43.0001 79.6922 42.9959Z" fill="#BD31AD"/>
<path d="M1.64234 54.4827C1.64234 57.6524 4.2119 60.2219 7.38161 60.2219C10.5513 60.2219 13.1209 57.6524 13.1209 54.4827C13.1209 51.313 10.5513 48.7434 7.38161 48.7434C4.2119 48.7434 1.64234 51.313 1.64234 54.4827Z" fill="#BD31AD"/>
<path d="M11.2629 69.7794C12.2355 71.9486 14.7824 72.9187 16.9516 71.946C19.1209 70.9734 20.0909 68.4265 19.1183 66.2573C18.1457 64.0881 15.5987 63.118 13.4295 64.0906C11.2603 65.0632 10.2903 67.6102 11.2629 69.7794Z" fill="#BD31AD"/>
<path d="M23.8963 78.1703C25.2323 79.0228 27.0065 78.6307 27.859 77.2947C28.7114 75.9586 28.3194 74.1845 26.9834 73.332C25.6473 72.4795 23.8731 72.8715 23.0207 74.2076C22.1682 75.5436 22.5602 77.3178 23.8963 78.1703Z" fill="#BD31AD"/>
</svg>
